<?xml version="1.0" standalone="no"?><!DOCTYPE svg PUBLIC "-//W3C//DTD SVG 1.1//EN" "http://www.w3.org/Graphics/SVG/1.1/DTD/svg11.dtd"><svg class="icon" width="32px" height="32.00px" viewBox="0 0 1024 1024" version="1.1" xmlns="http://www.w3.org/2000/svg"><path fill="#00aaff" d="M256 325.333333c46.933333 0 85.333333 39.466667 85.333333 87.466667V544h64V412.8c0-48 38.4-87.466667 85.333334-87.466667h42.666666c46.933333 0 85.333333 39.466667 85.333334 87.466667V544h64V412.8c0-48 38.4-87.466667 85.333333-87.466667h42.666667c46.933333 0 85.333333 39.466667 85.333333 87.466667V544h64c11.733333 0 21.333333 9.6 21.333333 22.4 0 11.733333-9.6 22.4-21.333333 22.4h-21.333333v241.066667c0 36.266667-28.8 66.133333-64 66.133333H149.333333c-35.2 0-64-29.866667-64-66.133333V588.8H64c-11.733333 0-21.333333-9.6-21.333333-22.4C42.666667 554.666667 52.266667 544 64 544h64V412.8c0-48 38.4-87.466667 85.333333-87.466667h42.666667z m640 263.466667H128v241.066667c0 11.733333 9.6 22.4 21.333333 22.4h725.333334c11.733333 0 21.333333-9.6 21.333333-22.4V588.8zM256 369.066667h-42.666667c-23.466667 0-42.666667 19.2-42.666666 43.733333V544h128V412.8c0-23.466667-19.2-43.733333-42.666667-43.733333z m277.333333 0h-42.666666c-23.466667 0-42.666667 19.2-42.666667 43.733333V544h128V412.8c0-23.466667-19.2-43.733333-42.666667-43.733333z m277.333334 0h-42.666667c-23.466667 0-42.666667 19.2-42.666667 43.733333V544h128V412.8c0-23.466667-19.2-43.733333-42.666666-43.733333zM512 128c46.933333 0 85.333333 39.466667 85.333333 87.466667s-38.4 87.466667-85.333333 87.466666-85.333333-39.466667-85.333333-87.466666 38.4-87.466667 85.333333-87.466667z m-277.333333 0c46.933333 0 85.333333 39.466667 85.333333 87.466667s-38.4 87.466667-85.333333 87.466666-85.333333-39.466667-85.333334-87.466666 38.4-87.466667 85.333334-87.466667z m554.666666 0c46.933333 0 85.333333 39.466667 85.333334 87.466667s-38.4 87.466667-85.333334 87.466666-85.333333-39.466667-85.333333-87.466666 38.4-87.466667 85.333333-87.466667z m-277.333333 43.733333c-23.466667 0-42.666667 19.2-42.666667 43.733334s19.2 43.733333 42.666667 43.733333 42.666667-19.2 42.666667-43.733333-19.2-43.733333-42.666667-43.733334z m-277.333333 0c-23.466667 0-42.666667 19.2-42.666667 43.733334s19.2 43.733333 42.666667 43.733333 42.666667-19.2 42.666666-43.733333-19.2-43.733333-42.666666-43.733334z m554.666666 0c-23.466667 0-42.666667 19.2-42.666666 43.733334s19.2 43.733333 42.666666 43.733333 42.666667-19.2 42.666667-43.733333-19.2-43.733333-42.666667-43.733334z"  /></svg>