<?xml version="1.0" standalone="no"?><!DOCTYPE svg PUBLIC "-//W3C//DTD SVG 1.1//EN" "http://www.w3.org/Graphics/SVG/1.1/DTD/svg11.dtd"><svg class="icon" width="32px" height="27.35px" viewBox="0 0 1198 1024" version="1.1" xmlns="http://www.w3.org/2000/svg"><path fill="#00aaff" d="M1118.957268 1024H79.872C35.989854 1024 0 988.634537 0 945.276878v-118.184585c0-98.803512 47.004098-187.392 119.882927-245.310439V78.698146C119.882927 35.465366 155.747902-0.024976 199.754927-0.024976h799.319414c43.882146 0 79.872 35.365463 79.872 78.723122v503.083708c73.003707 57.918439 119.882927 146.506927 119.882927 245.310439v118.184585C1198.829268 988.509659 1162.964293 1024 1118.957268 1024z m-119.882927-945.301854H199.754927v456.629074a320.786732 320.786732 0 0 1 119.882927-23.277269h559.553561c42.38361 0 82.744195 8.366829 119.882926 23.277269V78.698146z m-115.012682 512.074927H314.642732c-118.259512 0-217.013073 85.766244-236.144391 197.257366 0.499512 0 0.874146-0.22478 1.373659-0.22478h1038.96039c0.499512 0 0.874146 0.22478 1.373659 0.22478-19.006439-111.491122-117.76-197.257366-236.14439-197.257366z m239.890731 274.781659c-1.748293 0.22478-3.246829 0.974049-4.995122 0.974048H79.872c-1.748293 0-3.246829-0.749268-4.995122-0.974048v79.722146h1049.075512v-79.722146zM719.297561 472.613463c-43.882146 0-79.872-35.490341-79.872-78.723122v-78.748097c0-43.23278 35.864976-78.723122 79.872-78.723122h159.893854c43.882146 0 79.872 35.365463 79.872 78.723122v78.748097c0 43.23278-35.864976 78.723122-79.872 78.723122H719.297561z m159.893854-157.596097H719.297561v78.748097h159.893854v-78.748097zM479.531707 472.613463h-159.893853c-43.882146 0-79.872-35.365463-79.872-78.723122v-78.748097c0-43.23278 35.864976-78.723122 79.872-78.723122H479.531707c43.882146 0 79.872 35.365463 79.872 78.723122v78.748097c0 43.23278-35.864976 78.723122-79.872 78.723122z m0-157.596097h-159.893853v78.748097H479.531707v-78.748097z"  /></svg>