<?xml version="1.0" standalone="no"?><!DOCTYPE svg PUBLIC "-//W3C//DTD SVG 1.1//EN" "http://www.w3.org/Graphics/SVG/1.1/DTD/svg11.dtd"><svg class="icon" width="16px" height="16.00px" viewBox="0 0 1024 1024" version="1.1" xmlns="http://www.w3.org/2000/svg"><path fill="#00baad" d="M960 938.666667h-21.333333V221.62a106.666667 106.666667 0 0 0-89.133334-105.213333l-440.666666-73.446667A21.333333 21.333333 0 0 0 384 64v896a21.333333 21.333333 0 0 0 21.333333 21.333333h554.666667a21.333333 21.333333 0 0 0 0-42.666666z m-362.666667-85.333334h-42.666666v-85.333333h42.666666z m0-128h-42.666666V640h42.666666z m0-128h-42.666666V512h42.666666z m0-128h-42.666666V384h42.666666z m0-128h-42.666666V256h42.666666z m85.333334 512h-42.666667v-85.333333h42.666667z m0-128h-42.666667V640h42.666667z m0-128h-42.666667V512h42.666667z m0-128h-42.666667V384h42.666667z m0-128h-42.666667V256h42.666667z m85.333333 512h-42.666667v-85.333333h42.666667z m0-128h-42.666667V640h42.666667z m0-128h-42.666667V512h42.666667z m0-128h-42.666667V384h42.666667z m0-128h-42.666667V256h42.666667zM331.96 174.333333a21.333333 21.333333 0 0 0-19.88-2.14l-213.333333 85.333334A21.333333 21.333333 0 0 0 85.333333 277.333333v661.333334H64a21.333333 21.333333 0 0 0 0 42.666666h256a21.333333 21.333333 0 0 0 21.333333-21.333333V192a21.333333 21.333333 0 0 0-9.373333-17.666667zM213.333333 853.333333h-42.666666v-85.333333h42.666666z m0-128h-42.666666V640h42.666666z m0-128h-42.666666V512h42.666666z m0-128h-42.666666V384h42.666666z"  /></svg>