<?xml version="1.0" standalone="no"?><!DOCTYPE svg PUBLIC "-//W3C//DTD SVG 1.1//EN" "http://www.w3.org/Graphics/SVG/1.1/DTD/svg11.dtd"><svg class="icon" width="16px" height="16.00px" viewBox="0 0 1024 1024" version="1.1" xmlns="http://www.w3.org/2000/svg"><path fill="#00baad" d="M384 938.666667a42.666667 42.666667 0 1 1-42.666667-42.666667 42.713333 42.713333 0 0 1 42.666667 42.666667z m341.333333-42.666667a42.666667 42.666667 0 1 0 42.666667 42.666667 42.713333 42.713333 0 0 0-42.666667-42.666667z m244.16-587.506667L825.72 632a85.413333 85.413333 0 0 1-78 50.666667H290.826667l15.246666 54.22a42.82 42.82 0 0 0 41.073334 31.113333H789.333333a21.333333 21.333333 0 0 1 0 42.666667H347.146667a85.333333 85.333333 0 0 1-82.14-62.226667L90.506667 128H21.333333a21.333333 21.333333 0 0 1 0-42.666667h85.333334a21.333333 21.333333 0 0 1 20.533333 15.56L170.826667 256h764.553333a37.333333 37.333333 0 0 1 34.113333 52.493333zM927.173333 298.666667H182.826667l96 341.333333h468.913333a42.713333 42.713333 0 0 0 38.993333-25.333333z"  /></svg>