<?xml version="1.0" standalone="no"?><!DOCTYPE svg PUBLIC "-//W3C//DTD SVG 1.1//EN" "http://www.w3.org/Graphics/SVG/1.1/DTD/svg11.dtd"><svg class="icon" width="16px" height="16.00px" viewBox="0 0 1024 1024" version="1.1" xmlns="http://www.w3.org/2000/svg"><path fill="#00baad" d="M933.026032 649.40751l-54.483892 0 0-531.095917 54.763255 0c15.159258 0 27.458375-12.4608 27.458375-27.629267s-12.299117-27.629267-27.458375-27.629267l-82.220606 0L154.892743 63.053058 91.252307 63.053058c-15.159258 0-27.458375 12.4608-27.458375 27.629267s12.299117 27.629267 27.458375 27.629267l36.182061 0 0 531.095917-36.4604 0c-15.159258 0-27.458375 11.949146-27.458375 27.117614s12.299117 27.117614 27.458375 27.117614l63.918775 0 191.178157 0L213.731826 916.160923c-8.008394 12.871145-4.075829 29.80891 8.795317 37.826514 4.523013 2.806929 9.528004 4.14746 14.498202 4.14746 9.152451 0 18.126846-4.585435 23.328311-12.942777l147.177014-236.343823c1.042749-1.675152 1.877767-3.420913 2.52245-5.204535l74.318636 0 0 228.368174c0 15.168468 12.470009 27.458375 27.629267 27.458375s27.629267-12.289907 27.629267-27.458375L539.630291 703.642738l74.318636 0c0.644683 1.784646 1.479701 3.529383 2.52245 5.204535L763.646344 945.19212c5.202489 8.357342 14.175861 12.942777 23.328311 12.942777 4.969175 0 9.975189-1.340531 14.498202-4.14746 12.871145-8.017604 16.803711-24.955368 8.795317-37.826514L677.9291 703.642738l173.154665 0 81.942267 0c15.159258 0 27.458375-11.949146 27.458375-27.117614S948.18529 649.40751 933.026032 649.40751zM823.282582 649.40751l-640.58968 0 0-531.095917 640.58968 0L823.282582 649.40751zM274.30746 392.557654l84.305081 0c7.579629 0 14.372336-4.795213 17.090237-11.874445l45.441958-118.748544 119.826086 285.153482c2.842745 6.801916 9.510608 10.221806 16.875343 10.221806 0.017396 0 0.035816 0 0.071631 0 7.383154 0 14.051017-3.63069 16.857946-10.468422l63.801095-154.283876 111.674429 0c10.118452 0 18.305925-8.31027 18.305925-18.419512s-8.187473-18.419512-18.305925-18.419512L626.312512 355.718631c-7.41897 0-14.104229 4.707209-16.928554 11.571546l-51.698452 125.972063L437.250552 206.136847c-2.87856-6.890944-9.403161-10.733459-17.161868-11.288091-7.472182 0.116657-14.140045 4.650927-16.803711 11.631922l-57.258075 149.237953-71.720462 0c-10.118452 0-18.305925 8.31027-18.305925 18.419512S264.189008 392.557654 274.30746 392.557654z" /></svg>